<svg xmlns="http://www.w3.org/2000/svg" version="1.1" xmlns:xlink="http://www.w3.org/1999/xlink" xmlns:svgjs="http://svgjs.dev/svgjs" width="2000" height="309" viewBox="0 0 2000 309"><g transform="matrix(1,0,0,1,0.7171557145669567,1.1778448386270668)"><svg viewBox="0 0 394 61" data-background-color="#ffffff" preserveAspectRatio="xMidYMid meet" height="309" width="2000" xmlns="http://www.w3.org/2000/svg" xmlns:xlink="http://www.w3.org/1999/xlink"><g id="tight-bounds" transform="matrix(1,0,0,1,-0.14127967576968103,-0.23251953125000568)"><svg viewBox="0 0 394.28255935153936 61.4650390625" height="61.4650390625" width="394.28255935153936"><g><svg viewBox="0 0 394.28255935153936 61.4650390625" height="61.4650390625" width="394.28255935153936"><g><svg viewBox="0 0 394.28255935153936 61.4650390625" height="61.4650390625" width="394.28255935153936"><g id="textblocktransform"><svg viewBox="0 0 394.28255935153936 61.4650390625" height="61.4650390625" width="394.28255935153936" id="textblock"><g><svg viewBox="0 0 394.28255935153936 61.4650390625" height="61.4650390625" width="394.28255935153936"><g><svg><g></g><g></g></svg></g><g><svg><g><svg></svg></g><g></g></svg></g><g id="text-0"><svg viewBox="0 0 394.28255935153936 61.4650390625" height="61.4650390625" width="394.28255935153936"><g transform="matrix(1,0,0,1,0,0)"><svg width="318.30673828125" viewBox="0.68 -37.5 196.70999999999998 37.99" height="61.4650390625" data-palette-color="#4a596d"><path d="M27.15 0L23.75-9.28 8.86-9.28 5.52 0 0.68 0 14.26-35.55 18.36-35.55 31.96 0 27.15 0ZM16.31-29.76L10.28-13.13 22.36-13.13 16.31-29.76ZM36.03-26.42L40.31-26.42 40.45-23.1Q43.48-26.9 48.36-26.9L48.36-26.9Q56.74-26.9 56.81-17.46L56.81-17.46 56.81 0 52.29 0 52.29-17.48Q52.27-20.34 50.99-21.7 49.7-23.07 46.99-23.07L46.99-23.07Q44.8-23.07 43.14-21.9 41.48-20.73 40.55-18.82L40.55-18.82 40.55 0 36.03 0 36.03-26.42ZM68.53-26.42L68.53 0 64.01 0 64.01-26.42 68.53-26.42ZM63.64-33.42L63.64-33.42Q63.64-34.52 64.31-35.28 64.99-36.04 66.3-36.04 67.62-36.04 68.31-35.28 68.99-34.52 68.99-33.42 68.99-32.32 68.31-31.59 67.62-30.86 66.3-30.86 64.99-30.86 64.31-31.59 63.64-32.32 63.64-33.42ZM88.52-26.56L88.52-22.36Q87.49-22.53 86.3-22.53L86.3-22.53Q81.85-22.53 80.27-18.75L80.27-18.75 80.27 0 75.75 0 75.75-26.42 80.14-26.42 80.22-23.36Q82.44-26.9 86.52-26.9L86.52-26.9Q87.83-26.9 88.52-26.56L88.52-26.56ZM109.07 0L108.97-2.61Q106.34 0.49 101.24 0.49L101.24 0.49Q97.01 0.49 94.8-1.97 92.59-4.42 92.57-9.23L92.57-9.23 92.57-26.42 97.08-26.42 97.08-9.35Q97.08-3.34 101.97-3.34L101.97-3.34Q107.14-3.34 108.85-7.2L108.85-7.2 108.85-26.42 113.37-26.42 113.37 0 109.07 0ZM119.13-13.09L119.13-13.43Q119.13-19.51 122.01-23.21 124.89-26.9 129.55-26.9L129.55-26.9Q134.19-26.9 136.9-23.73L136.9-23.73 136.9-37.5 141.42-37.5 141.42 0 137.27 0 137.05-2.83Q134.34 0.49 129.5 0.49L129.5 0.49Q124.91 0.49 122.02-3.27 119.13-7.03 119.13-13.09L119.13-13.09ZM123.64-12.92L123.64-12.92Q123.64-8.42 125.5-5.88 127.36-3.34 130.63-3.34L130.63-3.34Q134.92-3.34 136.9-7.2L136.9-7.2 136.9-19.34Q134.88-23.07 130.68-23.07L130.68-23.07Q127.36-23.07 125.5-20.51 123.64-17.94 123.64-12.92ZM147.32-13.09L147.32-13.43Q147.32-19.51 150.2-23.21 153.09-26.9 157.75-26.9L157.75-26.9Q162.39-26.9 165.1-23.73L165.1-23.73 165.1-37.5 169.61-37.5 169.61 0 165.46 0 165.24-2.83Q162.53 0.49 157.7 0.49L157.7 0.49Q153.11 0.49 150.22-3.27 147.32-7.03 147.32-13.09L147.32-13.09ZM151.84-12.92L151.84-12.92Q151.84-8.42 153.7-5.88 155.55-3.34 158.82-3.34L158.82-3.34Q163.12-3.34 165.1-7.2L165.1-7.2 165.1-19.34Q163.07-23.07 158.87-23.07L158.87-23.07Q155.55-23.07 153.7-20.51 151.84-17.94 151.84-12.92ZM181.13-37.5L181.13-23.22Q184.14-26.9 188.95-26.9L188.95-26.9Q197.32-26.9 197.39-17.46L197.39-17.46 197.39 0 192.88 0 192.88-17.48Q192.85-20.34 191.57-21.7 190.29-23.07 187.58-23.07L187.58-23.07Q185.38-23.07 183.72-21.9 182.06-20.73 181.13-18.82L181.13-18.82 181.13 0 176.62 0 176.62-37.5 181.13-37.5Z" opacity="1" transform="matrix(1,0,0,1,0,0)" fill="#4a596d" class="wordmark-text-0" data-fill-palette-color="primary"></path></svg></g><g><svg xmlns="http://www.w3.org/2000/svg" xmlns:xlink="http://www.w3.org/1999/xlink" version="1.1" x="332.81826171874997" y="0" viewBox="5.412824897783869 5.195582772773262 79.76931438294501 79.77027662186998" enable-background="new 0 0 90 90" xml:space="preserve" height="61.4650390625" width="61.46429763278939" class="icon-cg-0" data-fill-palette-color="accent" id="cg-0"><path d="M54.624 83.27c-10.792 1.801-22.246-1.411-30.727-8.272-8.062-6.522-13.088-16.744-12.728-27.17 0.349-10.096 5.499-20.182 14.078-25.707 8.769-5.647 20.783-5.62 29.498 0.129 8.154 5.379 12.661 15.857 9.907 25.391-1.424 4.931-4.572 9.475-9.052 12.082-4.663 2.714-10.561 3.268-15.615 1.341-4.544-1.733-8.418-5.448-9.851-10.154-1.47-4.826-0.243-10.416 3.327-14.027 3.452-3.492 8.998-4.743 13.484-2.567 4.259 2.065 6.884 7.148 5.307 11.755-0.85 2.483-2.859 4.611-5.423 5.317-2.69 0.741-5.774-0.221-7.439-2.493-1.629-2.222-1.495-5.503 0.597-7.389 1.054-0.95 2.599-1.429 3.984-1.015 0.41 0.122 2.233 0.566 2.058 1.209 0.087-0.652-1.341-0.82-1.755-0.934-1.29-0.356-2.733 0.004-3.719 0.904-1.739 1.586-1.995 4.459-0.597 6.34 1.417 1.906 4.102 2.721 6.348 1.971 2.287-0.765 3.875-3.013 4.245-5.344 0.746-4.703-3.812-8.759-8.323-8.569-4.774 0.201-8.548 4.373-9.111 8.971-1.056 8.621 8.8 14.488 16.466 12.536 8.546-2.177 12.86-12.372 10.766-20.465-2.34-9.045-11.891-14.664-20.877-14.543-9.785 0.131-18.28 7.23-21.955 16.011-4.038 9.649-2.194 21.17 4.201 29.364 6.485 8.309 16.93 13.113 27.352 13.664 5.766 0.305 11.749-0.537 17.004-3.006 4.955-2.328 8.907-6.258 11.976-10.734 6.303-9.194 8.662-20.938 6.135-31.824C79.845 17.355 61.052 3.689 41.936 5.329 23.164 6.939 7.154 22.991 5.551 41.756c-0.918 10.74 2.777 21.76 9.928 29.817 7.078 7.976 17.424 12.875 28.071 13.353 6.118 0.275 12.303-0.876 17.903-3.359-2.472 0.844-4.993 1.695-7.622 1.838 0.506-0.028 0.982-0.246 1.492-0.242-1.79-0.014-3.465 0.776-5.242 0.87 1.034-0.055 2.103-0.271 3.095-0.566 0.337-0.101 1.458-0.578 1.755-0.242-0.207-0.235-1.358 0.182-1.613 0.243-0.926 0.221-1.953 0.452-2.902 0.51 0.426-0.026 4.536-0.711 4.53-0.755 0.008 0.065-4.022 0.607-4.613 0.769 0.714-0.196 1.505-0.245 2.235-0.367 0.292-0.048 2.164-0.591 2.374-0.402C54.91 83.194 54.661 83.264 54.624 83.27 43.928 85.055 57.114 82.88 54.624 83.27z" fill="#4a596d" data-fill-palette-color="accent"></path></svg></g></svg></g></svg></g></svg></g></svg></g></svg></g><defs></defs></svg><rect width="394.28255935153936" height="61.4650390625" fill="none" stroke="none" visibility="hidden"></rect></g></svg></g></svg>